<svg width="270" height="33" viewBox="0 0 270 33" fill="none" xmlns="http://www.w3.org/2000/svg">
<path fill-rule="evenodd" clip-rule="evenodd" d="M21.3333 12.8815H18.1547V10.6673C18.1547 9.8358 18.6736 9.64194 19.0391 9.64194C19.4037 9.64194 21.2822 9.64194 21.2822 9.64194V5.98644L18.193 5.97363C14.7637 5.97363 13.9833 8.70002 13.9833 10.4448V12.8815H12V16.6482H13.9833C13.9833 21.4824 13.9833 27.307 13.9833 27.307H18.1547C18.1547 27.307 18.1547 21.425 18.1547 16.6482H20.9695L21.3333 12.8815Z" fill="white"/>
<path fill-rule="evenodd" clip-rule="evenodd" d="M75.4284 5.97363C72.5306 5.97363 72.1688 5.98697 71.0311 6.03763C69.8951 6.09097 69.1217 6.26963 68.4417 6.53363C67.7404 6.80563 67.1448 7.17097 66.5519 7.76385C65.9591 8.35674 65.5928 8.95141 65.3217 9.65363C65.0577 10.3336 64.8782 11.107 64.8257 12.243C64.7724 13.3807 64.7617 13.7425 64.7617 16.6403C64.7617 19.5381 64.7751 19.8999 64.8257 21.0376C64.8791 22.1727 65.0577 22.947 65.3217 23.627C65.5937 24.3274 65.9591 24.9239 66.5519 25.5167C67.1448 26.1087 67.7395 26.4759 68.4417 26.747C69.1226 27.0101 69.8959 27.1905 71.0311 27.243C72.1688 27.2963 72.5306 27.307 75.4284 27.307C78.3262 27.307 78.6879 27.2936 79.8257 27.243C80.9608 27.1896 81.7351 27.0101 82.4151 26.747C83.1155 26.475 83.7119 26.1087 84.3048 25.5167C84.8968 24.9239 85.2639 24.3301 85.5351 23.627C85.7982 22.947 85.9786 22.1727 86.031 21.0376C86.0844 19.8999 86.0951 19.5381 86.0951 16.6403C86.0951 13.7425 86.0817 13.3807 86.031 12.243C85.9777 11.1079 85.7982 10.3327 85.5351 9.65363C85.2631 8.9523 84.8968 8.35674 84.3048 7.76385C83.7119 7.17097 83.1182 6.80474 82.4151 6.53363C81.7351 6.26963 80.9608 6.09008 79.8257 6.03763C78.6879 5.9843 78.3262 5.97363 75.4284 5.97363ZM75.4284 7.89363C78.2755 7.89363 78.6151 7.90786 79.7395 7.95674C80.7795 8.00563 81.3439 8.17808 81.7191 8.32563C82.2186 8.51852 82.5724 8.74963 82.9475 9.12208C83.3199 9.49541 83.5511 9.85008 83.7439 10.3496C83.8897 10.7247 84.0639 11.2892 84.1111 12.3292C84.1617 13.4545 84.1733 13.7923 84.1733 16.6403C84.1733 19.4883 84.1599 19.827 84.1075 20.9514C84.0533 21.9914 83.8799 22.5559 83.7333 22.931C83.5342 23.4305 83.3075 23.7843 82.9342 24.1594C82.5617 24.5319 82.2017 24.763 81.7075 24.9559C81.3342 25.1016 80.7608 25.2759 79.7208 25.323C78.5884 25.3736 78.2551 25.3852 75.4017 25.3852C72.5475 25.3852 72.2142 25.3719 71.0826 25.3194C70.0417 25.2652 69.4684 25.0919 69.0951 24.9452C68.5893 24.7461 68.2417 24.5194 67.8693 24.1461C67.4951 23.7736 67.2559 23.4136 67.0693 22.9194C66.9226 22.5461 66.7502 21.9727 66.6959 20.9327C66.6559 19.8127 66.6417 19.467 66.6417 16.627C66.6417 13.7861 66.6559 13.4394 66.6959 12.3061C66.7502 11.2661 66.9226 10.6936 67.0693 10.3203C67.2559 9.81363 67.4951 9.46697 67.8693 9.09274C68.2417 8.7203 68.5893 8.4803 69.0951 8.29452C69.4684 8.14697 70.0293 7.97363 71.0693 7.9203C72.2026 7.8803 72.5359 7.86697 75.3884 7.86697L75.4284 7.89363ZM75.4284 11.163C72.4017 11.163 69.9511 13.6163 69.9511 16.6403C69.9511 19.667 72.4044 22.1176 75.4284 22.1176C78.4551 22.1176 80.9057 19.6643 80.9057 16.6403C80.9057 13.6136 78.4524 11.163 75.4284 11.163ZM75.4284 20.1959C73.4639 20.1959 71.8728 18.6047 71.8728 16.6403C71.8728 14.6759 73.4639 13.0847 75.4284 13.0847C77.3928 13.0847 78.9839 14.6759 78.9839 16.6403C78.9839 18.6047 77.3928 20.1959 75.4284 20.1959ZM82.4026 10.947C82.4026 11.6536 81.8284 12.227 81.1226 12.227C80.4159 12.227 79.8426 11.6527 79.8426 10.947C79.8426 10.2412 80.4168 9.66785 81.1226 9.66785C81.8275 9.66697 82.4026 10.2412 82.4026 10.947Z" fill="white"/>
<path fill-rule="evenodd" clip-rule="evenodd" d="M145.483 10.7048C144.696 11.0504 143.856 11.2859 142.972 11.3934C143.873 10.8505 144.567 9.99481 144.895 8.97384C144.049 9.467 143.112 9.82598 142.115 10.0259C141.319 9.17377 140.184 8.64062 138.923 8.64062C136.508 8.64062 134.55 10.5981 134.55 13.0097C134.55 13.3563 134.59 13.6895 134.663 14.0085C131.028 13.837 127.805 12.0918 125.649 9.45367C125.27 10.0952 125.057 10.8407 125.057 11.6529C125.057 13.1723 125.83 14.5079 127.002 15.2925C126.285 15.2694 125.61 15.0721 125.022 14.7451V14.7993C125.022 16.9185 126.526 18.6859 128.529 19.0884C128.162 19.1871 127.774 19.2404 127.377 19.2404C127.098 19.2404 126.83 19.2137 126.563 19.164C127.124 20.8993 128.736 22.1647 130.655 22.2002C129.162 23.3722 127.27 24.0706 125.231 24.0706C124.885 24.0706 124.539 24.0502 124.191 24.0111C126.137 25.2498 128.429 25.974 130.908 25.974C138.956 25.974 143.351 19.3132 143.351 13.5464C143.351 13.3607 143.351 13.1732 143.338 12.9866C144.192 12.3744 144.938 11.6005 145.525 10.7225L145.483 10.7048Z" fill="white"/>
<path fill-rule="evenodd" clip-rule="evenodd" d="M194.77 5.97363C189.13 5.97363 186.285 10.1475 186.285 13.6288C186.285 15.7363 187.058 17.6111 188.716 18.3092C188.988 18.4249 189.232 18.3135 189.311 18.0028C189.365 17.7885 189.495 17.246 189.553 17.0193C189.632 16.7121 189.602 16.6049 189.382 16.3362C188.904 15.7547 188.598 15.0014 188.598 13.9335C188.598 10.837 190.843 8.06484 194.443 8.06484C197.631 8.06484 199.383 10.0755 199.383 12.7602C199.383 16.2938 197.868 19.2759 195.62 19.2759C194.377 19.2759 193.448 18.2162 193.745 16.9156C194.102 15.3631 194.793 13.6884 194.793 12.5669C194.793 11.5642 194.271 10.7277 193.192 10.7277C191.923 10.7277 190.903 12.0836 190.903 13.8992C190.903 15.0558 191.281 15.8383 191.281 15.8383C191.281 15.8383 189.982 21.5205 189.754 22.5156C189.301 24.4975 189.686 26.9264 189.719 27.1715C189.738 27.3172 189.919 27.3524 190.001 27.2426C190.118 27.0845 191.631 25.1579 192.145 23.2321C192.29 22.6874 192.979 19.8643 192.979 19.8643C193.392 20.6768 194.598 21.3907 195.88 21.3907C199.696 21.3907 202.285 17.8001 202.285 12.9937C202.286 9.35856 199.303 5.97363 194.77 5.97363Z" fill="white"/>
<path fill-rule="evenodd" clip-rule="evenodd" d="M263.937 12.2383C263.685 11.3519 262.981 10.6593 262.08 10.4119C260.417 9.97365 253.725 9.97365 253.725 9.97365C253.725 9.97365 247.05 9.9649 245.37 10.4119C244.469 10.6593 243.765 11.3519 243.513 12.2383C243.198 13.913 243.043 15.613 243.049 17.3162C243.044 19.0129 243.199 20.7064 243.513 22.3747C243.765 23.2611 244.469 23.9538 245.37 24.2012C247.031 24.6403 253.725 24.6403 253.725 24.6403C253.725 24.6403 260.399 24.6403 262.08 24.2012C262.981 23.9538 263.685 23.2611 263.937 22.3747C264.244 20.7058 264.393 19.0123 264.381 17.3162C264.394 15.6136 264.245 13.9136 263.937 12.2383ZM251.589 20.4573V14.1654L257.159 17.3162L251.589 20.4573Z" fill="white"/>
</svg>
